<?xml version="1.0" encoding="UTF-8" standalone="no"?>
<!-- Created with Inkscape (http://www.inkscape.org/) -->

<svg
   xmlns:dc="http://purl.org/dc/elements/1.1/"
   xmlns:cc="http://creativecommons.org/ns#"
   xmlns:rdf="http://www.w3.org/1999/02/22-rdf-syntax-ns#"
   xmlns:svg="http://www.w3.org/2000/svg"
   xmlns="http://www.w3.org/2000/svg"
   xmlns:sodipodi="http://sodipodi.sourceforge.net/DTD/sodipodi-0.dtd"
   xmlns:inkscape="http://www.inkscape.org/namespaces/inkscape"
   width="24"
   height="24"
   id="svg4460"
   version="1.1"
   inkscape:version="0.48.3.1 r9886"
   sodipodi:docname="bank.svg">
  <defs
     id="defs4462" />
  <sodipodi:namedview
     id="base"
     pagecolor="#ffffff"
     bordercolor="#666666"
     borderopacity="1.0"
     inkscape:pageopacity="0.0"
     inkscape:pageshadow="2"
     inkscape:zoom="11.313708"
     inkscape:cx="15.799504"
     inkscape:cy="21.571028"
     inkscape:document-units="px"
     inkscape:current-layer="layer1"
     showgrid="true"
     showguides="true"
     inkscape:guide-bbox="true"
     inkscape:window-width="1220"
     inkscape:window-height="833"
     inkscape:window-x="25"
     inkscape:window-y="155"
     inkscape:window-maximized="0"
     inkscape:snap-bbox="true"
     inkscape:snap-nodes="false"
     inkscape:snap-global="false">
    <inkscape:grid
       type="xygrid"
       id="grid4468"
       empspacing="5"
       visible="true"
       enabled="true"
       snapvisiblegridlinesonly="true"
       spacingx="1px"
       spacingy="1px" />
    <sodipodi:guide
       orientation="1,0"
       position="0,20"
       id="guide4470" />
    <sodipodi:guide
       orientation="0,1"
       position="4,24"
       id="guide4472" />
    <sodipodi:guide
       orientation="1,0"
       position="24,13"
       id="guide4474" />
    <sodipodi:guide
       orientation="0,1"
       position="15,0"
       id="guide4476" />
    <sodipodi:guide
       orientation="1,0"
       position="23,20"
       id="guide4478" />
    <sodipodi:guide
       orientation="0,1"
       position="20,23"
       id="guide4480" />
    <sodipodi:guide
       orientation="1,0"
       position="2,5"
       id="guide4482" />
    <sodipodi:guide
       orientation="0,1"
       position="7,2"
       id="guide4484" />
    <sodipodi:guide
       orientation="1,0"
       position="6,27"
       id="guide4486" />
    <sodipodi:guide
       orientation="0,1"
       position="8.3968934,14.053748"
       id="guide4490" />
  </sodipodi:namedview>
  <metadata
     id="metadata4465">
    <rdf:RDF>
      <cc:Work
         rdf:about="">
        <dc:format>image/svg+xml</dc:format>
        <dc:type
           rdf:resource="http://purl.org/dc/dcmitype/StillImage" />
        <dc:title />
      </cc:Work>
    </rdf:RDF>
  </metadata>
  <g
     inkscape:label="Layer 1"
     inkscape:groupmode="layer"
     id="layer1"
     transform="translate(0,-1028.3622)">
    <rect
       style="opacity:0.5;color:#000000;fill:none;stroke:none;stroke-width:2;marker:none;visibility:visible;display:inline;overflow:visible;enable-background:accumulate"
       id="rect22421"
       width="24"
       height="24.000017"
       x="0"
       y="1028.3622" />
    <g
       transform="matrix(1.1538462,0,0,0.93946619,-1.7463005,1029.1019)"
       style="font-size:40px;font-style:normal;font-weight:normal;line-height:125%;letter-spacing:0px;word-spacing:0px;fill:#000000;fill-opacity:1;stroke:none;font-family:Bitstream Vera Sans"
       id="text3009">
      <path
         d="m 17.886774,3.9400573 0,2.4367264 C 16.938458,5.9232638 16.043756,5.5851729 15.202664,5.362512 14.361551,5.1398836 13.549309,5.0285612 12.765937,5.0285442 11.405322,5.0285612 10.353942,5.2924361 9.6117978,5.8201712 8.8778892,6.347938 8.510938,7.0983341 8.5109419,8.0713608 c -3.9e-6,0.8163776 0.2432559,1.434836 0.7297809,1.8553755 0.494761,0.4123177 1.4265722,0.7462847 2.7954332,1.0019027 l 1.509039,0.30923 c 1.863611,0.354593 3.236587,0.981297 4.118935,1.880114 0.890566,0.890588 1.335855,2.086273 1.33587,3.58706 -1.5e-5,1.78941 -0.60198,3.145894 -1.805899,4.069456 -1.195699,0.923566 -2.952119,1.385348 -5.269268,1.385348 -0.874094,0 -1.805904,-0.09895 -2.7954325,-0.29686 C 8.1481091,21.66508 7.1297149,21.372343 6.074215,20.984776 l 0,-2.572788 c 1.0142693,0.568985 2.007925,0.997782 2.9809703,1.286394 0.9730357,0.288616 1.9295847,0.432922 2.8696477,0.432921 1.426569,1e-6 2.527425,-0.280366 3.302569,-0.841104 0.775124,-0.560733 1.16269,-1.360605 1.162702,-2.399619 -1.2e-5,-0.907067 -0.280379,-1.616232 -0.841104,-2.127498 -0.552499,-0.511251 -1.463695,-0.894695 -2.733586,-1.150333 l -1.521408,-0.29686 C 9.4303787,12.944823 8.08214,12.363472 7.2492865,11.571836 6.4164267,10.78022 5.9999984,9.679365 6,8.2692674 5.9999984,6.6365518 6.5731027,5.3501592 7.7193149,4.4100856 8.8737662,3.4700469 10.461142,3.0000194 12.481446,3 c 0.865833,1.94e-5 1.748167,0.078357 2.647003,0.2350145 0.898815,0.1566942 1.818256,0.3917087 2.758325,0.7050428"
         id="path3014"
         inkscape:connector-curvature="0" />
    </g>
    <rect
       style="fill:#000000;fill-opacity:1;stroke:none"
       id="rect3016"
       width="1.7563362"
       height="23.177069"
       x="10"
       y="1029.3622" />
    <rect
       style="fill:#000000;fill-opacity:1;stroke:none"
       id="rect3016-2"
       width="1.7563362"
       height="23.08868"
       x="13.243664"
       y="1029.3622" />
  </g>
</svg>
