<?xml version="1.0" encoding="UTF-8" standalone="no"?>
<!-- Created with Inkscape (http://www.inkscape.org/) -->

<svg
   xmlns:dc="http://purl.org/dc/elements/1.1/"
   xmlns:cc="http://creativecommons.org/ns#"
   xmlns:rdf="http://www.w3.org/1999/02/22-rdf-syntax-ns#"
   xmlns:svg="http://www.w3.org/2000/svg"
   xmlns="http://www.w3.org/2000/svg"
   xmlns:sodipodi="http://sodipodi.sourceforge.net/DTD/sodipodi-0.dtd"
   xmlns:inkscape="http://www.inkscape.org/namespaces/inkscape"
   width="24"
   height="24"
   id="svg4460"
   version="1.1"
   inkscape:version="0.48.3.1 r9886"
   sodipodi:docname="place_of_worship.svg">
  <defs
     id="defs4462" />
  <sodipodi:namedview
     id="base"
     pagecolor="#ffffff"
     bordercolor="#666666"
     borderopacity="1.0"
     inkscape:pageopacity="0.0"
     inkscape:pageshadow="2"
     inkscape:zoom="11.313708"
     inkscape:cx="15.799504"
     inkscape:cy="-3.6919166"
     inkscape:document-units="px"
     inkscape:current-layer="layer1"
     showgrid="true"
     showguides="true"
     inkscape:guide-bbox="true"
     inkscape:window-width="1220"
     inkscape:window-height="833"
     inkscape:window-x="56"
     inkscape:window-y="27"
     inkscape:window-maximized="0">
    <inkscape:grid
       type="xygrid"
       id="grid4468"
       empspacing="5"
       visible="true"
       enabled="true"
       snapvisiblegridlinesonly="true" />
    <sodipodi:guide
       orientation="1,0"
       position="0,20"
       id="guide4470" />
    <sodipodi:guide
       orientation="0,1"
       position="4,24"
       id="guide4472" />
    <sodipodi:guide
       orientation="1,0"
       position="24,13"
       id="guide4474" />
    <sodipodi:guide
       orientation="0,1"
       position="15,0"
       id="guide4476" />
    <sodipodi:guide
       orientation="1,0"
       position="23,20"
       id="guide4478" />
    <sodipodi:guide
       orientation="0,1"
       position="20,23"
       id="guide4480" />
    <sodipodi:guide
       orientation="1,0"
       position="2,5"
       id="guide4482" />
    <sodipodi:guide
       orientation="0,1"
       position="7,2"
       id="guide4484" />
    <sodipodi:guide
       orientation="0,1"
       position="16,13"
       id="guide4490" />
  </sodipodi:namedview>
  <metadata
     id="metadata4465">
    <rdf:RDF>
      <cc:Work
         rdf:about="">
        <dc:format>image/svg+xml</dc:format>
        <dc:type
           rdf:resource="http://purl.org/dc/dcmitype/StillImage" />
        <dc:title />
      </cc:Work>
    </rdf:RDF>
  </metadata>
  <g
     inkscape:label="Layer 1"
     inkscape:groupmode="layer"
     id="layer1"
     transform="translate(0,-1028.3622)">
    <path
       sodipodi:nodetypes="csssccssscsccscssccscs"
       inkscape:connector-curvature="0"
       id="path9083"
       d="m 12.5,1032.3622 c 0,0 -2.5,1 -2.5,2 0,0.6667 0,1.3958 0,2 0,1 -2,1 -2,2 0,2.3333 0,9 0,9 l 9,0 c 0,0 0,-6.6667 0,-9 0,-1 -2,-1 -2,-2.1875 0,-0.6042 0,-1.2083 0,-1.8125 0,-1 -2.5,-2 -2.5,-2 z m -8.5,8 c 0,2.3333 0,7 0,7 l 2,0 c 0,0 0,-4.6667 0,-7 0,-1 -1,-1 -1,-1 0,0 -1,0 -1,1 z m 15,0 c 0,2.3333 0,7 0,7 l 2,0 c 0,0 0,-4.6667 0,-7 0,-1 -1,-1 -1,-1 0,0 -1,0 -1,1 z"
       style="opacity:0.3;color:#000000;fill:#ffffff;fill-opacity:1;fill-rule:nonzero;stroke:#ffffff;stroke-width:2;stroke-linecap:butt;stroke-linejoin:round;stroke-miterlimit:4;stroke-opacity:1;stroke-dasharray:none;stroke-dashoffset:0;marker:none;visibility:visible;display:inline;overflow:visible;enable-background:accumulate" />
    <g
       inkscape:export-ydpi="90"
       inkscape:export-xdpi="90"
       inkscape:label="cemetery-24"
       id="g8814"
       transform="translate(-6,-94)">
      <g
         id="g8816" />
      <rect
         y="1122.3622"
         x="6.0000014"
         height="24.000017"
         width="24"
         id="rect8822"
         style="opacity:0.5;color:#000000;fill:none;stroke:none;stroke-width:2;marker:none;visibility:visible;display:inline;overflow:visible;enable-background:accumulate" />
    </g>
    <path
       style="fill:#ffffff;stroke:none;stroke-width:1px;stroke-linecap:butt;stroke-linejoin:miter;stroke-opacity:1"
       d="m 3,20 19,0 0,-10 -3,0 -4,-7 -5,0 -4,7 -3,0 z"
       id="path3003"
       inkscape:connector-curvature="0"
       transform="translate(0,1028.3622)" />
    <path
       style="color:#000000;fill:#000000;fill-opacity:1;fill-rule:nonzero;stroke:none;stroke-width:2;marker:none;visibility:visible;display:inline;overflow:visible;enable-background:accumulate"
       d="m 12.5,1032.3622 c 0,0 -2.5,1 -2.5,2 0,0.6667 0,1.3958 0,2 0,1 -2,1 -2,2 0,2.3333 0,9 0,9 l 9,0 c 0,0 0,-6.6667 0,-9 0,-1 -2,-1 -2,-2.1875 0,-0.6042 0,-1.2083 0,-1.8125 0,-1 -2.5,-2 -2.5,-2 z m -8.5,8 c 0,2.3333 0,7 0,7 l 2,0 c 0,0 0,-4.6667 0,-7 0,-1 -1,-1 -1,-1 0,0 -1,0 -1,1 z m 15,0 c 0,2.3333 0,7 0,7 l 2,0 c 0,0 0,-4.6667 0,-7 0,-1 -1,-1 -1,-1 0,0 -1,0 -1,1 z"
       id="path8846"
       inkscape:connector-curvature="0"
       sodipodi:nodetypes="csssccssscsccscssccscs" />
  </g>
</svg>
